<svg xmlns="http://www.w3.org/2000/svg" viewBox="0 0 1380 780" width="1380" height="780"><defs><marker id="a5B6B73" markerWidth="11" markerHeight="11" refX="7" refY="4" orient="auto" markerUnits="userSpaceOnUse"><path d="M1,1 L8,4 L1,7 Z" fill="#5B6B73"/></marker><marker id="a1C7293" markerWidth="11" markerHeight="11" refX="7" refY="4" orient="auto" markerUnits="userSpaceOnUse"><path d="M1,1 L8,4 L1,7 Z" fill="#1C7293"/></marker><marker id="a2EC4B6" markerWidth="11" markerHeight="11" refX="7" refY="4" orient="auto" markerUnits="userSpaceOnUse"><path d="M1,1 L8,4 L1,7 Z" fill="#2EC4B6"/></marker><marker id="a14333F" markerWidth="11" markerHeight="11" refX="7" refY="4" orient="auto" markerUnits="userSpaceOnUse"><path d="M1,1 L8,4 L1,7 Z" fill="#14333F"/></marker><marker id="a12A697" markerWidth="11" markerHeight="11" refX="7" refY="4" orient="auto" markerUnits="userSpaceOnUse"><path d="M1,1 L8,4 L1,7 Z" fill="#12A697"/></marker></defs><rect width="1380" height="780" fill="#FFFFFF"/><text x="60" y="64" font-size="24" fill="#1C7293" text-anchor="start" font-weight="700"  font-family="Arial, Helvetica, sans-serif">THE SINGLE SOURCE</text><text x="60" y="112" font-size="40" fill="#14333F" text-anchor="start" font-weight="700"  font-family="Arial, Helvetica, sans-serif">One Registry entry, three governed outputs</text><rect x="60" y="190" width="430" height="470" rx="14" fill="#14333F" stroke="none" stroke-width="0"/><text x="90" y="240" font-size="22" fill="#2EC4B6" text-anchor="start" font-weight="700"  font-family="Arial, Helvetica, sans-serif">REGISTRY ENTRY</text><text x="90" y="300" font-size="26" fill="#FFFFFF" text-anchor="start" font-weight="700"  font-family="Arial, Helvetica, sans-serif">concept</text><text x="90" y="356" font-size="26" fill="#FFFFFF" text-anchor="start" font-weight="700"  font-family="Arial, Helvetica, sans-serif">term id</text><text x="90" y="412" font-size="26" fill="#FFFFFF" text-anchor="start" font-weight="700"  font-family="Arial, Helvetica, sans-serif">tags  (allow-list)</text><text x="90" y="468" font-size="26" fill="#FFFFFF" text-anchor="start" font-weight="700"  font-family="Arial, Helvetica, sans-serif">sensitivity  (floor)</text><text x="90" y="524" font-size="26" fill="#FFFFFF" text-anchor="start" font-weight="700"  font-family="Arial, Helvetica, sans-serif">category</text><text x="90" y="580" font-size="26" fill="#FFFFFF" text-anchor="start" font-weight="700"  font-family="Arial, Helvetica, sans-serif">references</text><rect x="560" y="190" width="760" height="150" rx="14" fill="#EDF2F4" stroke="none" stroke-width="0"/><text x="594" y="246" font-size="28" fill="#14333F" text-anchor="start" font-weight="700"  font-family="Arial, Helvetica, sans-serif">Glossary term</text><text x="594" y="290" font-size="24" fill="#5B6B73" text-anchor="start" font-weight="400"  font-family="Arial, Helvetica, sans-serif">carries the same tags + sensitivity</text><line x1="500" y1="265" x2="546.0" y2="265.0" stroke="#1C7293" stroke-width="1.6"/><polygon points="552.0,265.0 546.0,267.5 546.0,262.5" fill="#1C7293"/><rect x="560" y="380" width="760" height="150" rx="14" fill="#EDF2F4" stroke="none" stroke-width="0"/><text x="594" y="436" font-size="28" fill="#14333F" text-anchor="start" font-weight="700"  font-family="Arial, Helvetica, sans-serif">Data Identification method</text><text x="594" y="480" font-size="24" fill="#5B6B73" text-anchor="start" font-weight="400"  font-family="Arial, Helvetica, sans-serif">applyTags stamped from the entry</text><line x1="500" y1="455" x2="546.0" y2="455.0" stroke="#2EC4B6" stroke-width="1.6"/><polygon points="552.0,455.0 546.0,457.5 546.0,452.5" fill="#2EC4B6"/><rect x="560" y="570" width="760" height="150" rx="14" fill="#EDF2F4" stroke="none" stroke-width="0"/><text x="594" y="626" font-size="28" fill="#14333F" text-anchor="start" font-weight="700"  font-family="Arial, Helvetica, sans-serif">Description</text><text x="594" y="670" font-size="24" fill="#5B6B73" text-anchor="start" font-weight="400"  font-family="Arial, Helvetica, sans-serif">prose + verified links</text><line x1="500" y1="645" x2="546.0" y2="645.0" stroke="#1C7293" stroke-width="1.6"/><polygon points="552.0,645.0 546.0,647.5 546.0,642.5" fill="#1C7293"/><text x="60" y="720" font-size="24" fill="#5B6B73" text-anchor="start" font-weight="400" font-style="italic" font-family="Arial, Helvetica, sans-serif">One writer of governed tags &amp; sensitivity — so the sides can't drift apart. Sync is a build invariant.</text></svg>